<mxfile host="app.diagrams.net" modified="2023-02-03T12:00:22.043Z" agent="5.0 (Windows NT 10.0; Win64; x64) AppleWebKit/537.36 (KHTML, like Gecko) Chrome/109.0.0.0 Safari/537.36" etag="3IEatzb_8jy4wJdQk-WN" version="20.8.14" type="github">
  <diagram name="第 1 页" id="V80icfyJwpA9R6Q1_7eQ">
    <mxGraphModel dx="1050" dy="525" grid="1" gridSize="10" guides="1" tooltips="1" connect="1" arrows="1" fold="1" page="1" pageScale="1" pageWidth="827" pageHeight="1169" math="0" shadow="0">
      <root>
        <mxCell id="0" />
        <mxCell id="1" parent="0" />
        <mxCell id="euz_qz70TQRUT2LAadJ5-1" style="edgeStyle=orthogonalEdgeStyle;rounded=0;orthogonalLoop=1;jettySize=auto;html=1;entryX=0.25;entryY=0;entryDx=0;entryDy=0;exitX=0.5;exitY=1;exitDx=0;exitDy=0;dashed=1;" edge="1" parent="1" source="euz_qz70TQRUT2LAadJ5-16" target="euz_qz70TQRUT2LAadJ5-10">
          <mxGeometry relative="1" as="geometry">
            <mxPoint x="330" y="270" as="sourcePoint" />
          </mxGeometry>
        </mxCell>
        <mxCell id="euz_qz70TQRUT2LAadJ5-2" value="" style="edgeStyle=orthogonalEdgeStyle;rounded=0;orthogonalLoop=1;jettySize=auto;html=1;exitX=0.5;exitY=1;exitDx=0;exitDy=0;entryX=0.75;entryY=0;entryDx=0;entryDy=0;" edge="1" parent="1" source="euz_qz70TQRUT2LAadJ5-17" target="euz_qz70TQRUT2LAadJ5-10">
          <mxGeometry relative="1" as="geometry">
            <mxPoint x="390" y="270" as="sourcePoint" />
          </mxGeometry>
        </mxCell>
        <mxCell id="euz_qz70TQRUT2LAadJ5-6" value="" style="endArrow=classic;html=1;rounded=0;exitX=0.5;exitY=1;exitDx=0;exitDy=0;dashed=1;" edge="1" parent="1">
          <mxGeometry width="50" height="50" relative="1" as="geometry">
            <mxPoint x="140" y="134.5" as="sourcePoint" />
            <mxPoint x="200" y="134.5" as="targetPoint" />
          </mxGeometry>
        </mxCell>
        <mxCell id="euz_qz70TQRUT2LAadJ5-7" value="识季流量" style="text;html=1;strokeColor=none;fillColor=none;align=center;verticalAlign=middle;whiteSpace=wrap;rounded=0;" vertex="1" parent="1">
          <mxGeometry x="200" y="120" width="60" height="30" as="geometry" />
        </mxCell>
        <mxCell id="euz_qz70TQRUT2LAadJ5-8" value="" style="endArrow=classic;html=1;rounded=0;exitX=0.5;exitY=1;exitDx=0;exitDy=0;" edge="1" parent="1">
          <mxGeometry width="50" height="50" relative="1" as="geometry">
            <mxPoint x="140" y="154.5" as="sourcePoint" />
            <mxPoint x="200" y="154.5" as="targetPoint" />
          </mxGeometry>
        </mxCell>
        <mxCell id="euz_qz70TQRUT2LAadJ5-9" value="IM 流量" style="text;html=1;strokeColor=none;fillColor=none;align=center;verticalAlign=middle;whiteSpace=wrap;rounded=0;" vertex="1" parent="1">
          <mxGeometry x="201" y="140" width="50" height="30" as="geometry" />
        </mxCell>
        <mxCell id="euz_qz70TQRUT2LAadJ5-10" value="中台服务" style="rounded=1;whiteSpace=wrap;html=1;fillColor=#e1d5e7;strokeColor=#9673a6;" vertex="1" parent="1">
          <mxGeometry x="320" y="370" width="120" height="60" as="geometry" />
        </mxCell>
        <mxCell id="euz_qz70TQRUT2LAadJ5-14" value="" style="pointerEvents=1;verticalLabelPosition=bottom;shadow=0;dashed=0;align=center;html=1;verticalAlign=top;shape=mxgraph.electrical.electro-mechanical.limitSwitch2;elSwitchState=off;" vertex="1" parent="1">
          <mxGeometry x="140" y="170" width="50" height="10" as="geometry" />
        </mxCell>
        <mxCell id="euz_qz70TQRUT2LAadJ5-15" value="限流" style="text;html=1;strokeColor=none;fillColor=none;align=center;verticalAlign=middle;whiteSpace=wrap;rounded=0;" vertex="1" parent="1">
          <mxGeometry x="200" y="160" width="40" height="30" as="geometry" />
        </mxCell>
        <mxCell id="euz_qz70TQRUT2LAadJ5-16" value="识季服务" style="rounded=1;whiteSpace=wrap;html=1;fillColor=#fff2cc;strokeColor=#d6b656;" vertex="1" parent="1">
          <mxGeometry x="230" y="210" width="120" height="60" as="geometry" />
        </mxCell>
        <mxCell id="euz_qz70TQRUT2LAadJ5-17" value="IM 服务" style="rounded=1;whiteSpace=wrap;html=1;fillColor=#fff2cc;strokeColor=#d6b656;" vertex="1" parent="1">
          <mxGeometry x="414" y="210" width="120" height="60" as="geometry" />
        </mxCell>
        <mxCell id="euz_qz70TQRUT2LAadJ5-18" value="" style="pointerEvents=1;verticalLabelPosition=bottom;shadow=0;dashed=0;align=center;html=1;verticalAlign=top;shape=mxgraph.electrical.electro-mechanical.limitSwitch2;elSwitchState=off;" vertex="1" parent="1">
          <mxGeometry x="320" y="340" width="50" height="10" as="geometry" />
        </mxCell>
        <mxCell id="euz_qz70TQRUT2LAadJ5-19" value="" style="pointerEvents=1;verticalLabelPosition=bottom;shadow=0;dashed=0;align=center;html=1;verticalAlign=top;shape=mxgraph.electrical.electro-mechanical.limitSwitch2;elSwitchState=off;" vertex="1" parent="1">
          <mxGeometry x="380" y="340" width="50" height="10" as="geometry" />
        </mxCell>
      </root>
    </mxGraphModel>
  </diagram>
</mxfile>
